<svg xmlns="http://www.w3.org/2000/svg" width="70" height="70" fill="none"><g clip-path="url(#A)"><path d="M32.65 32.735h2.332V43.23H32.65V32.735zm9.328 4.665H44.3v5.83h-2.332V37.4zM23.32 40.898h2.332v2.332H23.32v-2.332zm-6.995-1.168h2.332v3.498h-2.332V39.73z" fill="#2196f3"/><path d="M3.498 61.887h55.97a3.5 3.5 0 003.498-3.498v-4.664a3.5 3.5 0 00-3.498-3.498h-1.166v-29.08l6.623-6.274a3.52 3.52 0 004.404-1.091 3.517 3.517 0 00-.334-4.525 3.52 3.52 0 00-5.703 3.947l-4.99 4.73v-2.7a3.5 3.5 0 00-3.498-3.498H8.162a3.5 3.5 0 00-3.498 3.498v34.982H3.498A3.5 3.5 0 000 53.724v4.664a3.5 3.5 0 003.498 3.498zM66.465 10.58a1.166 1.166 0 11-.002 2.332 1.166 1.166 0 01.003-2.332zm-59.47 4.664c0-.644.522-1.166 1.166-1.166h46.642c.644 0 1.166.522 1.166 1.166v4.897l-2.332 2.216v-4.78c0-.644-.522-1.166-1.166-1.166H10.495c-.644 0-1.166.522-1.166 1.166v29.15c0 .644.522 1.166 1.166 1.166h41.978c.644 0 1.166-.522 1.166-1.166V25.565l2.332-2.2v26.87H6.996V15.244zm10.494 15.16a3.5 3.5 0 00-1.796 6.506 3.5 3.5 0 004.218-.494l4.053 2.034c.47.236 1.042.125 1.392-.268l8.616-9.693 8.47 6.347c.454.34 1.09.304 1.5-.086l7.36-6.973v17.787H11.66v-26.82h39.646v5.82l-8.25 7.813-8.54-6.403a1.166 1.166 0 00-1.57.158L24.2 35.957l-3.265-1.633c.024-.14.04-.28.044-.423a3.5 3.5 0 00-3.498-3.498zm1.166 3.498a1.166 1.166 0 11-2.332 0 1.166 1.166 0 012.332 0zm6.996 18.657h11.66v1.166c0 .644-.522 1.166-1.166 1.166H26.82a1.166 1.166 0 01-1.166-1.166v-1.166zm-23.32 1.166c0-.644.522-1.166 1.166-1.166H23.32v1.166a3.5 3.5 0 003.498 3.498h9.328a3.5 3.5 0 003.498-3.498v-1.166H59.47c.644 0 1.166.522 1.166 1.166v4.664c0 .644-.522 1.166-1.166 1.166H3.498a1.166 1.166 0 01-1.166-1.166v-4.664z" fill="#212121"/></g><defs><clipPath id="A"><path fill="#fff" d="M0 0h70v70H0z"/></clipPath></defs></svg>