<svg xmlns="http://www.w3.org/2000/svg" width="70" height="70" fill="none"><path d="M67.316 48.34l-18.47-18.605 2.05-10.096c.53.207 1.09.314 1.66.32h.014a4.723 4.723 0 10-4.667-4.778 4.72 4.72 0 00.273 1.639l-10.85 1.324L19.628.35a1.146 1.146 0 00-1.641-.01l-3.31 3.3a1.168 1.168 0 000 1.65l1.78 1.806a32.69 32.69 0 005.511 38.638c.093.09.2.162.32.214a6.77 6.77 0 00-.114 1.197v13.533h-14A5.84 5.84 0 002.342 66.5v2.333c0 .644.522 1.167 1.167 1.167h53.667c.644 0 1.167-.522 1.167-1.167V66.5a5.84 5.84 0 00-5.833-5.833h-14V54.67a32.88 32.88 0 006.669.7 32.493 32.493 0 0015.4-3.9l1.8 1.8a1.146 1.146 0 001.641.01l3.31-3.3a1.168 1.168 0 000-1.65zM50.925 13.635c.914-.91 2.39-.905 3.3.01s.905 2.39-.01 3.3c-.437.435-1.03.68-1.646.68h-.007a2.33 2.33 0 01-1.632-3.987h-.005zM48.178 21.3l-1.31 6.444-2.57-2.586 3.88-3.857zm-1.325-1.973l-4.2 4.176-3.25-3.267 7.45-.91zM52.51 63a3.5 3.5 0 013.5 3.5v1.167H4.676V66.5a3.5 3.5 0 013.5-3.5H52.51zm-16.333-4.667v2.333H24.51v-2.333h11.667zM24.51 56v-8.867c0-2.83 2.617-5.133 5.833-5.133s5.833 2.303 5.833 5.133V56H24.51zm14-3.7v-5.157c0-4.117-3.663-7.467-8.167-7.467a8.31 8.31 0 00-7.177 3.907A30.34 30.34 0 0118.181 8.83l40.692 40.925A30.347 30.347 0 0138.51 52.3zm24.695-1.496L17.142 4.46l1.65-1.645L36.15 20.272c.008 0 .013.015.02.02L64.86 49.15l-1.656 1.645z" fill="#212121"/><path d="M30.353 44.333h-.01a3.5 3.5 0 10-.01 7h.01a3.5 3.5 0 00.011-7zm.817 4.327a1.166 1.166 0 11-.826-1.993 1.166 1.166 0 01.816 1.993h.01z" fill="#2196f3"/></svg>