<svg xmlns="http://www.w3.org/2000/svg" width="70" height="70" fill="none"><g fill="#2196f3"><path d="M69.943 9.896a1.17 1.17 0 00-.941-.793l-4.18-.608-1.87-3.787c-.392-.798-1.7-.798-2.092 0L59 8.495l-4.18.608a1.17 1.17 0 00-.648 1.989l3.025 2.948-.714 4.163a1.17 1.17 0 00.463 1.141 1.16 1.16 0 001.23.089l3.738-1.966 3.738 1.966a1.17 1.17 0 001.23-.089 1.16 1.16 0 00.463-1.14l-.714-4.163 3.025-2.948a1.17 1.17 0 00.295-1.196zM64.556 12.8c-.274.267-.4.654-.335 1.032l.418 2.437-2.2-1.15c-.17-.1-.357-.134-.544-.134a1.17 1.17 0 00-.544.134l-2.2 1.15.418-2.437a1.17 1.17 0 00-.335-1.032l-1.772-1.727 2.448-.356c.38-.055.708-.294.88-.638l1.094-2.217L63 10.078c.17.344.498.583.88.638l2.448.356-1.77 1.727zm-7.39 32.092h-2.333v2.333h2.333v-2.333zm0 4.668h-2.333v2.333h2.333V49.56zM59.5 47.226h-2.333v2.333H59.5v-2.333zm-4.666 0H52.5v2.333h2.333v-2.333zM49 57.726h-2.333v2.333H49v-2.333zm0 4.667h-2.333v2.333H49v-2.333zM51.333 60.06H49v2.333h2.333V60.06zm-4.666 0h-2.333v2.333h2.333V60.06zM35 53.06h-2.333v2.333H35V53.06zm0 4.666h-2.333v2.333H35v-2.333zM37.333 55.393H35v2.333h2.333v-2.333zm-4.667 0h-2.333v2.333h2.333v-2.333zm-19.833-42H10.5v2.334h2.333v-2.334zm0 4.668H10.5v2.333h2.333V18.06zM15.166 15.725h-2.333v2.334h2.333v-2.334zm-4.666 0H8.166v2.334H10.5v-2.334z"/></g><path d="M54.064 30.974a3.88 3.88 0 00-5.529-.771l-2.74 2.1-4.15 3.1-2.97-1.183c5.297-2.376 9-7.674 9-13.825 0-8.363-6.83-15.167-15.227-15.167S17.216 12.03 17.216 20.394a15.02 15.02 0 002.45 8.221l-6.046-.053c-.03 0-.044.01-.062.01a1.14 1.14 0 00-.34.068c-.028.01-.057.016-.084.03-.014.006-.028.007-.042.014L6.02 32.176 1.877 34.17a.9.9 0 00-.138.077 3.882 3.882 0 00-1.3 5.02 3.89 3.89 0 002.3 1.945 4 4 0 001.18.18 3.89 3.89 0 001.836-.462l3.036-1.615 4.953-2.557 2.968-.017L1.876 51.507a3.606 3.606 0 00-1.072 2.576 3.61 3.61 0 001.072 2.578c.7.707 1.645 1.062 2.58 1.062s1.87-.355 2.582-1.062l2.875-2.86 3.808-2.843 1.97 1.962-6.786 6.756a3.606 3.606 0 00-1.072 2.576 3.61 3.61 0 001.072 2.578 3.65 3.65 0 002.581 1.062c.934 0 1.87-.355 2.582-1.062l9.827-9.774-.008-.008c.014-.014.034-.02.048-.034l11.3-12.377 7.593 1.08a1.11 1.11 0 00.164.012 1.15 1.15 0 00.41-.084c.04-.014.072-.033.1-.05s.086-.033.126-.06l7.03-4.667c.026-.017.04-.046.064-.064s.063-.032.1-.056l2.78-2.605a3.89 3.89 0 00.464-5.166zM4.66 38.872a1.56 1.56 0 01-1.221.113 1.56 1.56 0 01-.464-2.756l2.874-1.383.982 2.87-2.17 1.154zm7.65-3.998l-3.387 1.75-.96-2.807 4.433-2.2-.086 3.246zm33.03-14.482a12.68 12.68 0 01-1.31 5.599l-9.147-4.155a4.07 4.07 0 00-1.724-3.036l3.2-10.632c5.2 1.654 8.98 6.507 8.98 12.223zm-25.788 0c0-7.076 5.784-12.834 12.894-12.834.553 0 1.094.047 1.63.114l-3.133 10.4c-.042-.001-.082-.013-.125-.013-2.26 0-4.096 1.832-4.096 4.084s1.837 4.083 4.096 4.083c1.52 0 2.83-.84 3.54-2.066l8.45 3.84c-2.35 3.164-6.113 5.228-10.36 5.228-7.1 0-12.894-5.758-12.894-12.834zm13.03 1.75a1.763 1.763 0 01-3.526 0 1.763 1.763 0 013.526 0zm-27.2 32.866a1.33 1.33 0 01-1.869.001 1.3 1.3 0 01-.385-.925 1.29 1.29 0 01.385-.922l2.105-2.097L7.5 52.92l-2.098 2.088zm7.03 8.167a1.33 1.33 0 01-1.87.001 1.3 1.3 0 01-.385-.925 1.29 1.29 0 01.385-.922l2.106-2.098 1.863 1.854-2.1 2.1zm7.616-7.588l-3.864 3.852-1.863-1.854 3.857-3.84c.1-.1.146-.196.2-.3.015-.03.044-.056.057-.088.036-.1.042-.187.056-.28.007-.054.03-.104.03-.16 0-.078-.028-.154-.044-.23-.014-.07-.014-.14-.04-.2-.044-.1-.12-.206-.2-.3-.022-.026-.03-.058-.055-.083l-3.52-3.505c-.037-.037-.085-.052-.127-.084a1.11 1.11 0 00-.19-.126 1.004 1.004 0 00-.204-.07 1.32 1.32 0 00-.225-.043 1 1 0 00-.2.01 1.17 1.17 0 00-.227.044 1.08 1.08 0 00-.207.098c-.043.025-.092.033-.133.063l-3.88 2.896-1.97-1.962 5.248-5.22 9.54 9.38-2.03 2zm14.916-15.35c-.034-.005-.065.008-.1.006a1.124 1.124 0 00-.252.015 1.19 1.19 0 00-.193.047.74.74 0 00-.2.103 1.24 1.24 0 00-.182.134c-.028.024-.062.036-.087.064L23.653 51.862l-9.468-9.3 6.198-6.165a1.17 1.17 0 00-.831-1.993v-.001l-4.853.03.06-3.516 6.8.058a15.2 15.2 0 0010.897 4.596c.957 0 1.9-.1 2.8-.268.087.07.174.14.284.186l5.27 2.1.723 3.596-6.568-.934zm8.84.4L43.1 37.22l3.164-2.363 2.07 2.75-4.55 3.022zm8.2-6.193L50.16 36.16l-2.037-2.704 1.82-1.394c.34-.26.768-.367 1.188-.313s.796.28 1.05.622a1.56 1.56 0 01-.187 2.072zm-22.24 6.12l-4.688-4.667a1.165 1.165 0 00-1.646 0l-4.687 4.667a1.17 1.17 0 00-.343.827c0 .3.122.608.343.827l4.687 4.667c.227.226.526.34.824.34a1.16 1.16 0 00.823-.34l4.688-4.667a1.17 1.17 0 00.344-.827c0-.3-.124-.608-.344-.827zm-5.5 3.848l-3.033-3.02 3.033-3.02 3.035 3.02-3.035 3.02zm13.292-33.32l-.564 2.266c.155.04 3.8.988 3.8 4.7h2.333c0-4.412-3.644-6.487-5.57-6.966zm5.57 9.3h-2.333v2.334h2.333v-2.334z" fill="#212121"/></svg>